# Blender v2.83.9 OBJ File: 'Christmax.blend'
# www.blender.org
mtllib Christmax.mtl
o PineStem_Cylinder
v 0.494148 -0.400171 0.769157
v 0.494148 -0.400171 0.969157
v 0.593134 -0.463585 0.769157
v 0.593134 -0.463585 0.969157
v 0.563412 -0.577323 0.769157
v 0.563412 -0.577323 0.969157
v 0.446057 -0.584203 0.769157
v 0.446057 -0.584203 0.969157
v 0.403249 -0.474717 0.769157
v 0.403249 -0.474717 0.969157
vt 1.000000 0.500000
vt 1.000000 1.000000
vt 0.800000 1.000000
vt 0.800000 0.500000
vt 0.600000 1.000000
vt 0.600000 0.500000
vt 0.400000 1.000000
vt 0.400000 0.500000
vt 0.200000 1.000000
vt 0.200000 0.500000
vt 0.000000 1.000000
vt 0.000000 0.500000
vn 0.5394 0.8420 0.0000
vn 0.9675 -0.2528 0.0000
vn 0.0585 -0.9983 0.0000
vn -0.9313 -0.3641 0.0000
vn -0.6341 0.7732 0.0000
usemtl None
s off
f 1/1/1 2/2/1 4/3/1 3/4/1
f 3/4/2 4/3/2 6/5/2 5/6/2
f 5/6/3 6/5/3 8/7/3 7/8/3
f 7/8/4 8/7/4 10/9/4 9/10/4
f 9/10/5 10/9/5 2/11/5 1/12/5
o PineLeaf_Cone.003
v 0.739207 -1.165765 0.799937
v 1.196173 -0.625723 0.799937
v 0.956966 0.040042 0.799937
v 0.260793 0.165765 0.799937
v 0.500000 -0.500000 0.245530
v -0.196173 -0.374277 0.799937
v 0.043034 -1.040042 0.799937
v 0.973646 -0.854745 0.488730
v 1.044041 -0.267183 0.488730
v 0.570395 0.087562 0.488730
v 0.026354 -0.145255 0.488730
v 0.500000 -0.500000 -0.065677
v -0.044041 -0.732817 0.488730
v 0.429605 -1.087562 0.488730
v 0.756990 -0.836375 0.160233
v 0.919805 -0.445627 0.160233
v 0.662814 -0.109252 0.160233
v 0.243010 -0.163625 0.160233
v 0.500000 -0.500000 -0.463331
v 0.080195 -0.554373 0.160233
v 0.337186 -0.890748 0.160233
v 0.585295 -0.812977 -0.174026
v 0.813693 -0.582621 -0.174026
v 0.728398 -0.269644 -0.174026
v 0.414705 -0.187024 -0.174026
v 0.500000 -0.500000 -0.878273
v 0.186307 -0.417379 -0.174026
v 0.271602 -0.730356 -0.174026
vt 0.250000 0.490000
vt 0.250000 0.250000
vt 0.457846 0.370000
vt 0.457846 0.130000
vt 0.250000 0.010000
vt 0.042154 0.130000
vt 0.042154 0.370000
vt 0.250000 0.490000
vt 0.250000 0.250000
vt 0.457846 0.370000
vt 0.457846 0.130000
vt 0.250000 0.010000
vt 0.042154 0.130000
vt 0.042154 0.370000
vt 0.250000 0.490000
vt 0.250000 0.250000
vt 0.457846 0.370000
vt 0.457846 0.130000
vt 0.250000 0.010000
vt 0.042154 0.130000
vt 0.042154 0.370000
vt 0.250000 0.490000
vt 0.250000 0.250000
vt 0.457846 0.370000
vt 0.457846 0.130000
vt 0.250000 0.010000
vt 0.042154 0.130000
vt 0.042154 0.370000
vn 0.5122 -0.4334 -0.7415
vn 0.6315 0.2269 -0.7415
vn 0.1192 0.6603 -0.7415
vn -0.5122 0.4334 -0.7415
vn -0.6315 -0.2269 -0.7415
vn -0.1192 -0.6603 -0.7415
vn 0.7291 -0.0874 -0.6788
vn 0.4402 0.5878 -0.6788
vn -0.2889 0.6751 -0.6788
vn -0.7291 0.0874 -0.6788
vn -0.4402 -0.5878 -0.6788
vn 0.2889 -0.6751 -0.6788
vn 0.7957 -0.3316 -0.5068
vn 0.6850 0.5234 -0.5068
vn -0.1107 0.8549 -0.5068
vn -0.7957 0.3316 -0.5068
vn -0.6850 -0.5234 -0.5068
vn 0.1107 -0.8549 -0.5068
vn 0.6596 -0.6540 -0.3705
vn 0.8961 0.2442 -0.3705
vn 0.2366 0.8982 -0.3705
vn -0.6596 0.6540 -0.3705
vn -0.8961 -0.2442 -0.3705
vn -0.2366 -0.8982 -0.3705
usemtl None
s off
f 11/13/6 15/14/6 12/15/6
f 12/15/7 15/14/7 13/16/7
f 13/16/8 15/14/8 14/17/8
f 14/17/9 15/14/9 16/18/9
f 16/18/10 15/14/10 17/19/10
f 17/19/11 15/14/11 11/13/11
f 18/20/12 22/21/12 19/22/12
f 19/22/13 22/21/13 20/23/13
f 20/23/14 22/21/14 21/24/14
f 21/24/15 22/21/15 23/25/15
f 23/25/16 22/21/16 24/26/16
f 24/26/17 22/21/17 18/20/17
f 25/27/18 29/28/18 26/29/18
f 26/29/19 29/28/19 27/30/19
f 27/30/20 29/28/20 28/31/20
f 28/31/21 29/28/21 30/32/21
f 30/32/22 29/28/22 31/33/22
f 31/33/23 29/28/23 25/27/23
f 32/34/24 36/35/24 33/36/24
f 33/36/25 36/35/25 34/37/25
f 34/37/26 36/35/26 35/38/26
f 35/38/27 36/35/27 37/39/27
f 37/39/28 36/35/28 38/40/28
f 38/40/29 36/35/29 32/34/29
o Giftbox1_Cube.002
v 0.376818 0.247719 0.969157
v 0.466717 0.637486 0.969157
v 0.376818 0.247719 0.569157
v 0.466717 0.637486 0.569157
v 0.766585 0.157821 0.969157
v 0.856484 0.547587 0.969157
v 0.766585 0.157821 0.569157
v 0.856484 0.547587 0.569157
vt 0.375000 0.000000
vt 0.625000 0.000000
vt 0.625000 0.250000
vt 0.375000 0.250000
vt 0.625000 0.500000
vt 0.375000 0.500000
vt 0.625000 0.750000
vt 0.375000 0.750000
vt 0.125000 0.500000
vt 0.125000 0.750000
vt 0.875000 0.500000
vt 0.875000 0.750000
vn -0.9744 0.2247 0.0000
vn -0.0000 0.0000 -1.0000
vn 0.9744 -0.2247 0.0000
vn -0.2247 -0.9744 0.0000
vn 0.2247 0.9744 0.0000
usemtl None
s off
f 39/41/30 40/42/30 42/43/30 41/44/30
f 41/44/31 42/43/31 46/45/31 45/46/31
f 45/46/32 46/45/32 44/47/32 43/48/32
f 41/49/33 45/46/33 43/48/33 39/50/33
f 46/45/34 42/51/34 40/52/34 44/47/34
o GiftboxRibbon1_Cube.003
v 0.610163 0.176203 0.549546
v 0.525489 0.195733 0.549546
v 0.623139 0.619104 0.549546
v 0.707813 0.599574 0.549546
v 0.525489 0.195733 0.968204
v 0.610163 0.176203 0.968204
v 0.707813 0.599574 0.968204
v 0.623139 0.619104 0.968204
v 0.395201 0.404141 0.968204
v 0.414731 0.488815 0.968204
v 0.414731 0.488815 0.549546
v 0.395201 0.404141 0.549546
v 0.838101 0.391166 0.549546
v 0.818571 0.306492 0.549546
v 0.838101 0.391166 0.968204
v 0.818571 0.306492 0.968204
v 0.584079 0.449755 0.549546
v 0.564549 0.365081 0.549546
v 0.668753 0.430226 0.549546
v 0.649223 0.345551 0.549546
vt 0.725000 0.500000
vt 0.775000 0.500000
vt 0.775000 0.750000
vt 0.725000 0.750000
vt 0.225000 0.500000
vt 0.275000 0.500000
vt 0.275000 0.750000
vt 0.225000 0.750000
vt 0.475000 0.500000
vt 0.525000 0.500000
vt 0.525000 0.750000
vt 0.475000 0.750000
vt 0.475000 0.000000
vt 0.525000 0.000000
vt 0.525000 0.250000
vt 0.475000 0.250000
vt 0.000000 0.000000
vt 0.000000 0.000000
vt 0.000000 0.000000
vt 0.000000 0.000000
vn 0.2247 0.9744 0.0000
vn -0.2247 -0.9744 0.0000
vn 0.9744 -0.2247 0.0000
vn -0.9744 0.2247 0.0000
vn 0.0000 0.0000 -1.0000
usemtl None
s off
f 50/53/35 49/54/35 54/55/35 53/56/35
f 48/57/36 47/58/36 52/59/36 51/60/36
f 60/61/37 59/62/37 61/63/37 62/64/37
f 55/65/38 56/66/38 57/67/38 58/68/38
f 48/57/39 64/69/39 58/68/39 57/67/39 63/70/39 49/54/39 50/53/39 65/71/39 59/62/39 60/61/39 66/72/39 47/58/39
o Giftbox2_Cube.004
v -0.280116 0.420398 0.966039
v -0.063702 0.695059 0.966039
v -0.280117 0.420398 0.616362
v -0.063702 0.695059 0.616362
v -0.005455 0.203983 0.966039
v 0.210959 0.478645 0.966039
v -0.005455 0.203983 0.616362
v 0.210959 0.478645 0.616362
vt 0.375000 0.000000
vt 0.625000 0.000000
vt 0.625000 0.250000
vt 0.375000 0.250000
vt 0.625000 0.500000
vt 0.375000 0.500000
vt 0.625000 0.750000
vt 0.375000 0.750000
vt 0.125000 0.500000
vt 0.125000 0.750000
vt 0.875000 0.500000
vt 0.875000 0.750000
vn -0.7855 0.6189 0.0000
vn 0.0000 0.0000 -1.0000
vn 0.7855 -0.6189 -0.0000
vn -0.6189 -0.7855 -0.0000
vn 0.6189 0.7855 0.0000
usemtl None
s off
f 67/73/40 68/74/40 70/75/40 69/76/40
f 69/76/41 70/75/41 74/77/41 73/78/41
f 73/78/42 74/77/42 72/79/42 71/80/42
f 69/81/43 73/78/43 71/80/43 67/82/43
f 74/77/44 70/83/44 68/84/44 72/79/44
o GiftboxRibbon2_Cube.005
v -0.123110 0.275210 0.608807
v -0.183343 0.322669 0.608807
v 0.053953 0.623833 0.608807
v 0.114186 0.576373 0.608807
v -0.183343 0.322669 0.968594
v -0.123110 0.275210 0.968594
v 0.114186 0.576373 0.968594
v 0.053953 0.623833 0.968594
v -0.208890 0.538053 0.968594
v -0.161431 0.598285 0.968594
v -0.161431 0.598286 0.608807
v -0.208890 0.538053 0.608807
v 0.139733 0.360990 0.608806
v 0.092274 0.300757 0.608806
v 0.139733 0.360990 0.968594
v 0.092274 0.300757 0.968594
v -0.040965 0.503367 0.608807
v -0.088424 0.443135 0.608807
v 0.019267 0.455908 0.608807
v -0.028192 0.395675 0.608807
vt 0.725000 0.500000
vt 0.775000 0.500000
vt 0.775000 0.750000
vt 0.725000 0.750000
vt 0.225000 0.500000
vt 0.275000 0.500000
vt 0.275000 0.750000
vt 0.225000 0.750000
vt 0.475000 0.500000
vt 0.525000 0.500000
vt 0.525000 0.750000
vt 0.475000 0.750000
vt 0.475000 0.000000
vt 0.525000 0.000000
vt 0.525000 0.250000
vt 0.475000 0.250000
vt 0.000000 0.000000
vt 0.000000 0.000000
vt 0.000000 0.000000
vt 0.000000 0.000000
vn 0.6189 0.7855 0.0000
vn -0.6189 -0.7855 -0.0000
vn 0.7855 -0.6189 -0.0000
vn -0.7855 0.6189 0.0000
vn 0.0000 0.0000 -1.0000
usemtl None
s off
f 78/85/45 77/86/45 82/87/45 81/88/45
f 76/89/46 75/90/46 80/91/46 79/92/46
f 88/93/47 87/94/47 89/95/47 90/96/47
f 83/97/48 84/98/48 85/99/48 86/100/48
f 76/89/49 92/101/49 86/100/49 85/99/49 91/102/49 77/86/49 78/85/49 93/103/49 87/94/49 88/93/49 94/104/49 75/90/49
o SnowmanBelly_Sphere
v -0.488652 0.339833 0.963278
v -0.449956 0.480597 0.674282
v -0.488652 0.339833 0.385285
v -0.241058 0.089012 0.963278
v -0.099806 0.125882 0.674282
v -0.241058 0.089012 0.385285
v -0.334479 -0.250821 0.963278
v -0.231922 -0.354714 0.674282
v -0.334479 -0.250821 0.385285
v -0.675493 -0.339833 0.963278
v -0.714189 -0.480597 0.674282
v -0.675493 -0.339833 0.385285
v -0.923087 -0.089012 0.963278
v -1.064340 -0.125882 0.674282
v -0.923087 -0.089012 0.385285
v -0.829666 0.250821 0.963278
v -0.932223 0.354714 0.674282
v -0.829666 0.250821 0.385285
vt 0.666667 0.500000
vt 0.666667 0.750000
vt 0.500000 0.750000
vt 0.500000 0.500000
vt 0.666667 0.250000
vt 0.500000 0.250000
vt 0.333333 0.750000
vt 0.333333 0.500000
vt 0.333333 0.250000
vt 0.166667 0.750000
vt 0.166667 0.500000
vt 0.166667 0.250000
vt 0.833333 0.750000
vt 1.000000 0.750000
vt 0.000000 0.750000
vt 0.000000 0.500000
vt 0.000000 0.250000
vt 1.000000 0.250000
vt 0.833333 0.250000
vt 1.000000 0.500000
vt 0.833333 0.500000
vn 0.6520 0.6436 0.4008
vn 0.6520 0.6436 -0.4008
vn 0.8834 -0.2428 0.4008
vn 0.8834 -0.2428 -0.4008
vn 0.2314 -0.8865 0.4008
vn 0.2314 -0.8865 -0.4008
vn 0.0000 -0.0000 1.0000
vn -0.6520 -0.6436 0.4008
vn -0.6520 -0.6436 -0.4008
vn 0.0000 0.0000 -1.0000
vn -0.8834 0.2428 0.4008
vn -0.8834 0.2428 -0.4008
vn -0.2314 0.8865 0.4008
vn -0.2314 0.8865 -0.4008
usemtl None
s off
f 96/105/50 95/106/50 98/107/50 99/108/50
f 97/109/51 96/105/51 99/108/51 100/110/51
f 99/108/52 98/107/52 101/111/52 102/112/52
f 100/110/53 99/108/53 102/112/53 103/113/53
f 102/112/54 101/111/54 104/114/54 105/115/54
f 103/113/55 102/112/55 105/115/55 106/116/55
f 95/106/56 110/117/56 107/118/56 104/114/56 101/111/56 98/107/56
f 105/115/57 104/114/57 107/119/57 108/120/57
f 106/116/58 105/115/58 108/120/58 109/121/58
f 97/109/59 100/110/59 103/113/59 106/116/59 109/122/59 112/123/59
f 108/124/60 107/118/60 110/117/60 111/125/60
f 109/122/61 108/124/61 111/125/61 112/123/61
f 111/125/62 110/117/62 95/106/62 96/105/62
f 112/123/63 111/125/63 96/105/63 97/109/63
o SnowmanChest_Sphere.001
v -0.496272 0.209418 0.409237
v -0.476321 0.386120 0.129189
v -0.527255 0.273028 -0.099463
v -0.344260 0.054853 0.396121
v -0.196045 0.101136 0.105006
v -0.329070 0.071514 -0.116564
v -0.401616 -0.154565 0.401070
v -0.301796 -0.284984 0.114131
v -0.403847 -0.201514 -0.110112
v -0.610983 -0.209418 0.419135
v -0.687824 -0.386120 0.147439
v -0.676810 -0.273028 -0.086559
v -0.610300 -0.000000 -0.188829
v -0.762995 -0.054853 0.432252
v -0.968100 -0.101136 0.171623
v -0.874995 -0.071514 -0.069459
v -0.705639 0.154565 0.427303
v -0.862348 0.284984 0.162498
v -0.800218 0.201514 -0.075911
vt 0.583333 0.000000
vt 0.666667 0.250000
vt 0.500000 0.250000
vt 0.666667 0.500000
vt 0.666667 0.750000
vt 0.500000 0.750000
vt 0.500000 0.500000
vt 0.333333 0.750000
vt 0.333333 0.500000
vt 0.333333 0.250000
vt 0.416667 0.000000
vt 0.250000 0.000000
vt 0.166667 0.250000
vt 0.166667 0.750000
vt 0.166667 0.500000
vt 0.083333 0.000000
vt 0.000000 0.250000
vt 0.000000 0.750000
vt 0.000000 0.500000
vt 0.916667 0.000000
vt 1.000000 0.250000
vt 0.833333 0.250000
vt 1.000000 0.500000
vt 1.000000 0.750000
vt 0.833333 0.750000
vt 0.833333 0.500000
vt 0.750000 0.000000
vn 0.1789 0.2565 -0.9499
vn 0.6605 0.6128 0.4337
vn 0.6151 0.6436 -0.4554
vn 0.8813 -0.2316 0.4119
vn 0.8457 -0.2428 -0.4753
vn 0.2707 -0.0968 -0.9578
vn 0.0118 -0.3533 -0.9354
vn 0.2612 -0.8413 0.4733
vn 0.1961 -0.8865 -0.4192
vn -0.3389 -0.2565 -0.9052
vn -0.5689 -0.6066 0.5554
vn -0.6841 -0.6436 -0.3433
vn -0.4308 0.0968 -0.8973
vn -0.7844 0.2285 0.5767
vn -0.9146 0.2428 -0.3234
vn -0.1719 0.3533 -0.9196
vn -0.1751 0.8382 0.5164
vn -0.2650 0.8865 -0.3794
usemtl None
s off
f 125/126/64 115/127/64 118/128/64
f 114/129/65 113/130/65 116/131/65 117/132/65
f 115/127/66 114/129/66 117/132/66 118/128/66
f 117/132/67 116/131/67 119/133/67 120/134/67
f 118/128/68 117/132/68 120/134/68 121/135/68
f 125/136/69 118/128/69 121/135/69
f 125/137/70 121/135/70 124/138/70
f 120/134/71 119/133/71 122/139/71 123/140/71
f 121/135/72 120/134/72 123/140/72 124/138/72
f 125/141/73 124/138/73 128/142/73
f 123/140/74 122/139/74 126/143/74 127/144/74
f 124/138/75 123/140/75 127/144/75 128/142/75
f 125/145/76 128/146/76 131/147/76
f 127/148/77 126/149/77 129/150/77 130/151/77
f 128/146/78 127/148/78 130/151/78 131/147/78
f 125/152/79 131/147/79 115/127/79
f 130/151/80 129/150/80 113/130/80 114/129/80
f 131/147/81 130/151/81 114/129/81 115/127/81
o SnowmanRightHand_Cylinder.001
v -0.790851 0.219770 -0.001914
v -0.996466 0.633168 -0.067732
v -0.780839 0.234428 0.058878
v -0.986455 0.647826 -0.006940
v -0.834303 0.205112 0.041764
v -1.039919 0.618509 -0.024054
vt 1.000000 0.500000
vt 1.000000 1.000000
vt 0.666667 1.000000
vt 0.666667 0.500000
vt 0.333333 1.000000
vt 0.333333 0.500000
vt -0.000000 1.000000
vt -0.000000 0.500000
vn 0.8835 0.4009 -0.2422
vn -0.3049 0.0000 0.9524
vn -0.5787 -0.4009 -0.7102
usemtl None
s off
f 132/153/82 133/154/82 135/155/82 134/156/82
f 134/156/83 135/155/83 137/157/83 136/158/83
f 136/158/84 137/157/84 133/159/84 132/160/84
o SnowmanHead_Sphere.002
v -0.531039 0.149159 -0.127003
v -0.492611 0.275016 -0.323247
v -0.508757 0.194465 -0.489315
v -0.422436 0.039069 -0.123073
v -0.292372 0.072035 -0.316000
v -0.367167 0.050936 -0.484190
v -0.463413 -0.110090 -0.124556
v -0.367924 -0.202981 -0.318734
v -0.420591 -0.143529 -0.486124
v -0.612993 -0.149159 -0.129970
v -0.643715 -0.275016 -0.328717
v -0.615605 -0.194466 -0.493182
v -0.559703 -0.000000 -0.559704
v -0.721595 -0.039069 -0.133901
v -0.843954 -0.072035 -0.335964
v -0.757195 -0.050936 -0.498307
v -0.680618 0.110090 -0.132417
v -0.768402 0.202981 -0.333230
v -0.703771 0.143529 -0.496373
vt 0.583333 0.000000
vt 0.666667 0.250000
vt 0.500000 0.250000
vt 0.666667 0.500000
vt 0.666667 0.750000
vt 0.500000 0.750000
vt 0.500000 0.500000
vt 0.333333 0.750000
vt 0.333333 0.500000
vt 0.333333 0.250000
vt 0.416667 0.000000
vt 0.250000 0.000000
vt 0.166667 0.250000
vt 0.166667 0.750000
vt 0.166667 0.500000
vt 0.083333 0.000000
vt 0.000000 0.250000
vt 0.000000 0.750000
vt 0.000000 0.500000
vt 0.916667 0.000000
vt 1.000000 0.250000
vt 0.833333 0.250000
vt 1.000000 0.500000
vt 1.000000 0.750000
vt 0.833333 0.750000
vt 0.833333 0.500000
vt 0.750000 0.000000
vn 0.2933 0.2565 -0.9210
vn 0.6027 0.6128 0.5110
vn 0.6661 0.6436 -0.3769
vn 0.8245 -0.2316 0.5163
vn 0.8973 -0.2428 -0.3686
vn 0.3855 -0.0968 -0.9176
vn 0.1258 -0.3533 -0.9270
vn 0.2016 -0.8413 0.5016
vn 0.2457 -0.8865 -0.3922
vn -0.2260 -0.2565 -0.9398
vn -0.6323 -0.6066 0.4819
vn -0.6371 -0.6436 -0.4241
vn -0.3182 0.0968 -0.9431
vn -0.8488 0.2285 0.4767
vn -0.8683 0.2428 -0.4325
vn -0.0585 0.3533 -0.9337
vn -0.2367 0.8382 0.4912
vn -0.2167 0.8865 -0.4089
usemtl None
s off
f 150/161/85 140/162/85 143/163/85
f 139/164/86 138/165/86 141/166/86 142/167/86
f 140/162/87 139/164/87 142/167/87 143/163/87
f 142/167/88 141/166/88 144/168/88 145/169/88
f 143/163/89 142/167/89 145/169/89 146/170/89
f 150/171/90 143/163/90 146/170/90
f 150/172/91 146/170/91 149/173/91
f 145/169/92 144/168/92 147/174/92 148/175/92
f 146/170/93 145/169/93 148/175/93 149/173/93
f 150/176/94 149/173/94 153/177/94
f 148/175/95 147/174/95 151/178/95 152/179/95
f 149/173/96 148/175/96 152/179/96 153/177/96
f 150/180/97 153/181/97 156/182/97
f 152/183/98 151/184/98 154/185/98 155/186/98
f 153/181/99 152/183/99 155/186/99 156/182/99
f 150/187/100 156/182/100 140/162/100
f 155/186/101 154/185/101 138/165/101 139/164/101
f 156/182/102 155/186/102 139/164/102 140/162/102
o SnowmanLeftHand_Cylinder.002
v -0.317790 -0.011047 -0.001914
v 0.118932 0.138784 -0.067732
v -0.304566 -0.022888 0.058878
v 0.132156 0.126943 -0.006940
v -0.326645 0.033949 0.041764
v 0.110077 0.183780 -0.024054
vt 1.000000 0.500000
vt 1.000000 1.000000
vt 0.666667 1.000000
vt 0.666667 0.500000
vt 0.333333 1.000000
vt 0.333333 0.500000
vt -0.000000 1.000000
vt -0.000000 0.500000
vn 0.2820 -0.9283 -0.2422
vn 0.0398 0.3022 0.9524
vn -0.3218 0.6261 -0.7102
usemtl None
s off
f 157/188/103 158/189/103 160/190/103 159/191/103
f 159/191/104 160/190/104 162/192/104 161/193/104
f 161/193/105 162/192/105 158/194/105 157/195/105
o SnowmanNose_Cylinder.003
v -0.495515 0.191726 -0.374368
v -0.414018 0.492372 -0.329948
v -0.464400 0.197183 -0.266183
v -0.568179 0.228876 -0.296639
vt 0.000000 0.000000
vt 0.000000 0.000000
vt 0.000000 0.000000
vt 0.000000 0.000000
vn -0.2052 0.2400 0.9488
vn 0.9411 -0.2167 -0.2597
vn -0.6318 0.2782 -0.7235
usemtl None
s off
f 165/196/106 164/197/106 166/198/106
f 165/196/107 163/199/107 164/197/107
f 163/199/108 166/198/108 164/197/108
