# Blender v2.83.9 OBJ File: 'Lotus.blend'
# www.blender.org
mtllib Lotus.mtl
o Circle
v -0.034234 -0.023178 -0.233081
v -0.053427 -0.010065 -0.233081
v -0.051667 0.013114 -0.233081
v -0.030714 0.023178 -0.233081
v -0.011521 0.010065 -0.233081
v -0.013281 -0.013114 -0.233081
v -0.034234 -0.023178 0.247696
v -0.053427 -0.010065 0.247696
v -0.051667 0.013114 0.247696
v -0.030714 0.023178 0.247696
v -0.011521 0.010065 0.247696
v -0.013281 -0.013114 0.247696
v -0.018531 -0.012715 0.318312
v -0.016771 0.010464 0.318312
v -0.035651 0.023553 0.314771
v -0.056291 0.013465 0.311231
v -0.058052 -0.009714 0.311231
v -0.039172 -0.022803 0.314771
v -0.107636 -0.017604 0.699060
v -0.126516 -0.004514 0.695520
v -0.124756 0.018664 0.695520
v -0.104115 0.028753 0.699060
v -0.085235 0.015663 0.702601
v -0.086996 -0.007515 0.702601
v -0.111241 -0.037836 -0.272328
v -0.104624 0.049297 -0.272328
v -0.025857 0.087132 -0.272328
v 0.039676 -0.049297 -0.272328
v -0.039091 -0.087132 -0.272328
v -0.032474 0.000000 -0.893741
v 0.046294 0.037836 -0.272328
v -0.049725 -0.227162 -0.331199
v -0.237827 -0.098641 -0.331199
v -0.220576 0.128521 -0.331199
v -0.015222 0.227162 -0.331199
v 0.172880 0.098641 -0.331199
v 0.155628 -0.128521 -0.331199
v -0.053691 -0.279379 -0.392250
v -0.285032 -0.121315 -0.392250
v -0.263815 0.158064 -0.392250
v -0.011257 0.279379 -0.392250
v 0.220084 0.121315 -0.392250
v 0.198867 -0.158064 -0.392250
v -0.054735 -0.293135 -0.555780
v -0.297467 -0.127288 -0.555780
v -0.275205 0.165847 -0.555780
v -0.010212 0.293135 -0.555780
v 0.232520 0.127288 -0.555780
v 0.210258 -0.165847 -0.555780
v -0.051483 -0.250302 -0.738933
v -0.258746 -0.108689 -0.738933
v -0.239738 0.141613 -0.738933
v -0.013465 0.250302 -0.738933
v 0.193799 0.108689 -0.738933
v 0.174790 -0.141613 -0.738933
v 0.111567 -0.010258 -0.243895
v 0.062616 -0.082434 -0.249392
v 0.103086 -0.009614 -0.871364
v 0.074077 0.068483 -0.249392
v 0.130251 -0.209539 -0.298961
v 0.160131 0.183916 -0.298961
v 0.257869 -0.021369 -0.284629
v 0.160377 -0.257310 -0.356232
v 0.197126 0.226589 -0.356232
v 0.317331 -0.025884 -0.338606
v 0.186811 -0.271299 -0.517594
v 0.225370 0.236426 -0.517594
v 0.351493 -0.028479 -0.499101
v 0.191359 -0.234336 -0.701995
v 0.224284 0.199200 -0.701995
v 0.331978 -0.026997 -0.686203
v -0.188133 -0.177325 -0.227309
v -0.217976 -0.095337 -0.232119
v -0.166107 -0.159522 -0.854196
v -0.102206 -0.192821 -0.230820
v -0.359294 -0.075046 -0.285077
v -0.057472 -0.329196 -0.281690
v -0.281490 -0.288797 -0.272536
v -0.414135 -0.070543 -0.343744
v -0.042934 -0.383114 -0.339579
v -0.318447 -0.333428 -0.328320
v -0.436663 -0.080909 -0.505970
v -0.047185 -0.408871 -0.501600
v -0.336263 -0.356739 -0.489787
v -0.404461 -0.102877 -0.690010
v -0.071893 -0.382917 -0.686278
v -0.318732 -0.338402 -0.676192
v -0.018736 0.150729 -0.247274
v 0.056689 0.100596 -0.258416
v -0.013480 0.219933 -0.937579
v -0.100866 0.112562 -0.258416
v 0.189813 0.176856 -0.303797
v -0.220948 0.208050 -0.303797
v -0.006826 0.307556 -0.274750
v 0.240208 0.215203 -0.362750
v -0.264974 0.253568 -0.362750
v -0.001632 0.375946 -0.327026
v 0.256322 0.262677 -0.536786
v -0.273733 0.302931 -0.536786
v 0.002574 0.431335 -0.499304
v 0.219474 0.290337 -0.739154
v -0.233130 0.324709 -0.739154
v 0.002803 0.434351 -0.707149
v 0.021991 -0.077216 -0.219112
v -0.068077 -0.072175 -0.232848
v 0.069641 -0.176416 -0.904113
v 0.074353 -0.003760 -0.232848
v -0.144141 -0.207060 -0.273064
v 0.227186 -0.028695 -0.273064
v 0.090674 -0.220202 -0.237251
v -0.167135 -0.268540 -0.329431
v 0.289548 -0.049174 -0.329431
v 0.121656 -0.284702 -0.285385
v -0.152939 -0.326899 -0.500296
v 0.326230 -0.096732 -0.500296
v 0.150071 -0.343857 -0.454081
v -0.102042 -0.343163 -0.700846
v 0.307111 -0.146628 -0.700846
v 0.156693 -0.357643 -0.661385
v -0.135730 -0.042884 -0.243895
v -0.129199 0.044081 -0.249392
v -0.128054 -0.039222 -0.871364
v -0.064022 -0.092518 -0.249392
v -0.251125 0.120658 -0.298961
v -0.081203 -0.235469 -0.298961
v -0.268152 -0.106068 -0.284629
v -0.301031 0.147096 -0.356232
v -0.092050 -0.290894 -0.356232
v -0.321973 -0.131748 -0.338606
v -0.330921 0.146072 -0.517594
v -0.111650 -0.313484 -0.517594
v -0.352894 -0.146501 -0.499101
v -0.316469 0.111749 -0.701995
v -0.129237 -0.280656 -0.701995
v -0.335230 -0.138073 -0.686203
v -0.256474 0.138923 -0.227309
v -0.185619 0.189837 -0.232119
v -0.233375 0.122536 -0.854196
v -0.248142 0.052009 -0.230820
v -0.204323 0.331374 -0.285077
v -0.367326 -0.027957 -0.281690
v -0.389048 0.198636 -0.272536
v -0.214827 0.385388 -0.343744
v -0.415299 -0.056542 -0.339579
v -0.442015 0.222138 -0.328320
v -0.230902 0.404271 -0.505970
v -0.441245 -0.059419 -0.501600
v -0.469276 0.232982 -0.489787
v -0.243338 0.367326 -0.690010
v -0.422945 -0.028609 -0.686279
v -0.446880 0.221066 -0.676192
v 0.171609 0.166017 -0.240567
v 0.159312 0.080241 -0.251839
v 0.229329 0.195259 -0.864749
v 0.104713 0.221393 -0.250275
v 0.279791 -0.003103 -0.293382
v 0.137445 0.364894 -0.289305
v 0.311849 0.220524 -0.263994
v 0.333332 -0.030429 -0.346826
v 0.158265 0.422158 -0.341812
v 0.372759 0.244602 -0.310683
v 0.379923 -0.023476 -0.504030
v 0.196236 0.451395 -0.498769
v 0.421291 0.265097 -0.466107
v 0.387391 0.021324 -0.686588
v 0.230544 0.426808 -0.682096
v 0.422714 0.267731 -0.654207
vt 0.000000 0.000000
vt 0.000000 0.000000
vt 0.000000 0.000000
vt 0.000000 0.000000
vt 0.000000 0.000000
vt 0.000000 0.000000
vt 0.000000 0.000000
vt 0.000000 0.000000
vt 0.000000 0.000000
vt 0.000000 0.000000
vt 0.000000 0.000000
vt 0.000000 0.000000
vt 0.000000 0.000000
vt 0.000000 0.000000
vt 0.000000 0.000000
vt 0.000000 0.000000
vt 0.000000 0.000000
vt 0.000000 0.000000
vt 0.000000 0.000000
vt 0.000000 0.000000
vt 0.000000 0.000000
vt 0.000000 0.000000
vt 0.000000 0.000000
vt 0.000000 0.000000
vt 0.000000 0.000000
vt 0.000000 0.000000
vt 0.000000 0.000000
vt 0.000000 0.000000
vt 0.000000 0.000000
vt 0.000000 0.000000
vt 0.000000 0.000000
vt 0.000000 0.000000
vt 0.000000 0.000000
vt 0.000000 0.000000
vt 0.000000 0.000000
vt 0.000000 0.000000
vt 0.000000 0.000000
vt 0.000000 0.000000
vt 0.000000 0.000000
vt 0.000000 0.000000
vt 0.000000 0.000000
vt 0.000000 0.000000
vt 0.000000 0.000000
vt 0.000000 0.000000
vt 0.000000 0.000000
vt 0.000000 0.000000
vt 0.000000 0.000000
vt 0.000000 0.000000
vt 0.000000 0.000000
vt 0.000000 0.000000
vt 0.000000 0.000000
vt 0.000000 0.000000
vt 0.000000 0.000000
vt 0.000000 0.000000
vt 0.000000 0.000000
vt 0.000000 0.000000
vt 0.000000 0.000000
vt 0.000000 0.000000
vt 0.000000 0.000000
vt 0.000000 0.000000
vt 0.000000 0.000000
vt 0.000000 0.000000
vt 0.000000 0.000000
vt 0.000000 0.000000
vt 0.000000 0.000000
vt 0.000000 0.000000
vt 0.000000 0.000000
vt 0.000000 0.000000
vt 0.000000 0.000000
vt 0.000000 0.000000
vt 0.000000 0.000000
vt 0.000000 0.000000
vt 0.000000 0.000000
vt 0.000000 0.000000
vt 0.000000 0.000000
vt 0.000000 0.000000
vt 0.000000 0.000000
vt 0.000000 0.000000
vt 0.000000 0.000000
vt 0.000000 0.000000
vt 0.000000 0.000000
vt 0.000000 0.000000
vt 0.000000 0.000000
vt 0.000000 0.000000
vt 0.000000 0.000000
vt 0.000000 0.000000
vt 0.000000 0.000000
vt 0.000000 0.000000
vt 0.000000 0.000000
vt 0.000000 0.000000
vt 0.000000 0.000000
vt 0.000000 0.000000
vt 0.000000 0.000000
vt 0.000000 0.000000
vt 0.000000 0.000000
vt 0.000000 0.000000
vt 0.000000 0.000000
vt 0.000000 0.000000
vt 0.000000 0.000000
vt 0.000000 0.000000
vt 0.000000 0.000000
vt 0.000000 0.000000
vt 0.000000 0.000000
vt 0.000000 0.000000
vt 0.000000 0.000000
vt 0.000000 0.000000
vt 0.000000 0.000000
vt 0.000000 0.000000
vt 0.000000 0.000000
vt 0.000000 0.000000
vt 0.000000 0.000000
vt 0.000000 0.000000
vt 0.000000 0.000000
vt 0.000000 0.000000
vt 0.000000 0.000000
vt 0.000000 0.000000
vt 0.000000 0.000000
vt 0.000000 0.000000
vt 0.000000 0.000000
vt 0.000000 0.000000
vt 0.000000 0.000000
vt 0.000000 0.000000
vt 0.000000 0.000000
vt 0.000000 0.000000
vt 0.000000 0.000000
vt 0.000000 0.000000
vt 0.000000 0.000000
vt 0.000000 0.000000
vt 0.000000 0.000000
vt 0.000000 0.000000
vt 0.000000 0.000000
vt 0.000000 0.000000
vt 0.000000 0.000000
vt 0.000000 0.000000
vt 0.000000 0.000000
vt 0.000000 0.000000
vt 0.000000 0.000000
vt 0.000000 0.000000
vt 0.000000 0.000000
vt 0.000000 0.000000
vt 0.000000 0.000000
vt 0.000000 0.000000
vt 0.000000 0.000000
vt 0.000000 0.000000
vt 0.000000 0.000000
vt 0.000000 0.000000
vt 0.000000 0.000000
vt 0.000000 0.000000
vt 0.000000 0.000000
vt 0.000000 0.000000
vt 0.000000 0.000000
vt 0.000000 0.000000
vt 0.000000 0.000000
vt 0.000000 0.000000
vt 0.000000 0.000000
vt 0.000000 0.000000
vt 0.000000 0.000000
vt 0.000000 0.000000
vt 0.000000 0.000000
vt 0.000000 0.000000
vt 0.000000 0.000000
vt 0.000000 0.000000
vt 0.000000 0.000000
vt 0.000000 0.000000
vt 0.000000 0.000000
vt 0.000000 0.000000
vt 0.000000 0.000000
vn 0.5641 0.8257 -0.0000
vn -0.9971 0.0757 0.0000
vn 0.9971 -0.0757 -0.0000
vn -0.4330 0.9014 -0.0000
vn -0.5641 -0.8257 0.0000
vn 0.4330 -0.9014 0.0000
vn 0.9944 -0.0755 0.0744
vn -0.5638 -0.8251 -0.0365
vn -0.9945 0.0755 -0.0728
vn 0.5638 0.8251 0.0369
vn -0.4327 0.9008 -0.0369
vn 0.4337 -0.9003 0.0370
vn 0.5564 0.8263 0.0879
vn 0.4252 -0.9008 0.0879
vn -0.9816 0.0745 -0.1759
vn -0.4252 0.9008 -0.0879
vn -0.5564 -0.8263 -0.0879
vn 0.9816 -0.0745 0.1759
vn 0.4327 -0.9008 0.0373
vn 0.5646 0.8245 0.0373
vn -0.4338 0.9003 -0.0365
vn -0.5647 -0.8245 -0.0370
vn -0.2499 0.5202 0.8167
vn -0.3255 -0.4765 0.8167
vn 0.3255 0.4765 0.8167
vn -0.5784 0.0439 -0.8146
vn 0.3272 0.4789 -0.8146
vn 0.2512 -0.5229 -0.8146
vn -0.3272 -0.4789 -0.8146
vn -0.2512 0.5229 -0.8146
vn 0.5784 -0.0439 -0.8146
vn -0.4344 0.0330 0.9001
vn 0.4344 -0.0330 0.9001
vn -0.2458 -0.3597 0.9001
vn -0.4529 -0.6628 0.5963
vn 0.3476 -0.7236 0.5963
vn 0.4529 0.6628 0.5963
vn -0.8004 0.0608 0.5963
vn 0.8004 -0.0608 0.5963
vn -0.3476 0.7236 0.5963
vn 0.9945 -0.0755 0.0729
vn -0.4318 0.8990 0.0729
vn -0.5626 -0.8235 0.0729
vn 0.4318 -0.8990 0.0729
vn 0.5626 0.8235 0.0729
vn -0.9945 0.0755 0.0729
vn 0.4243 -0.8834 -0.1991
vn 0.5529 0.8092 -0.1991
vn -0.9772 0.0742 -0.1991
vn 0.9772 -0.0742 -0.1991
vn -0.4243 0.8834 -0.1991
vn -0.5529 -0.8092 -0.1991
vn 0.5772 -0.3347 -0.7449
vn 0.6211 0.2437 -0.7449
vn 0.2768 0.1975 0.9404
vn 0.2438 -0.2370 0.9404
vn 0.5825 -0.4468 0.6791
vn 0.6433 0.3537 0.6790
vn 0.8830 0.4330 0.1810
vn 0.8075 -0.5614 0.1810
vn 0.8274 -0.5542 -0.0907
vn 0.9016 0.4229 -0.0907
vn -0.5889 -0.2593 -0.7655
vn -0.1452 -0.6329 -0.7605
vn -0.0262 -0.3569 0.9338
vn -0.3595 -0.0763 0.9300
vn -0.7205 -0.2238 0.6563
vn -0.1065 -0.7408 0.6632
vn -0.1689 -0.9727 0.1591
vn -0.9318 -0.3303 0.1505
vn -0.9304 -0.3458 -0.1215
vn -0.1808 -0.9770 -0.1131
vn 0.3511 0.6730 -0.6510
vn -0.2455 0.7183 -0.6510
vn 0.4524 0.5196 0.7248
vn -0.3688 0.5820 0.7248
vn -0.4357 0.8599 0.2658
vn 0.5606 0.7843 0.2658
vn 0.5548 0.8319 0.0127
vn -0.4228 0.9061 0.0127
vn 0.0485 -0.7919 -0.6087
vn 0.5878 -0.5329 -0.6087
vn -0.1510 -0.6368 0.7561
vn 0.5914 -0.2802 0.7561
vn 0.7999 -0.5114 0.3141
vn -0.1007 -0.9440 0.3141
vn -0.0655 -0.9958 0.0641
vn 0.8182 -0.5713 0.0641
vn -0.6672 0.0030 -0.7449
vn -0.4174 -0.5205 -0.7449
vn -0.1418 -0.3090 0.9404
vn -0.3294 0.0842 0.9404
vn -0.7276 0.0976 0.6791
vn -0.3819 -0.6269 0.6790
vn -0.5503 -0.8151 0.1810
vn -0.9798 0.0850 0.1810
vn -0.9935 0.0689 -0.0907
vn -0.5715 -0.8156 -0.0907
vn -0.4089 0.4968 -0.7655
vn -0.6486 -0.0314 -0.7605
vn -0.3507 -0.0713 0.9338
vn -0.1707 0.3254 0.9300
vn -0.4104 0.6331 0.6563
vn -0.7420 -0.0979 0.6632
vn -0.9821 -0.1006 0.1591
vn -0.5701 0.8076 0.1505
vn -0.5846 0.8021 -0.1215
vn -0.9895 -0.0903 -0.1131
vn 0.7394 -0.0175 -0.6731
vn 0.5301 0.5234 -0.6671
vn 0.0651 0.2480 0.9666
vn 0.2222 -0.1583 0.9621
vn 0.6434 -0.1897 0.7416
vn 0.3539 0.5589 0.7499
vn 0.5868 0.7586 0.2833
vn 0.9466 -0.1716 0.2730
vn 0.9898 -0.1426 0.0055
vn 0.6362 0.7713 0.0156
vn -0.2001 0.1478 0.9686
vn 0.2158 0.1090 0.9703
vn 0.0077 0.1008 0.9949
vn -0.0013 -0.0405 0.9992
vn 0.0464 0.0297 0.9985
vn 0.0269 -0.0020 0.9996
vn 0.4834 0.3621 0.7970
vn 0.1695 -0.1523 0.9737
vn -0.0033 -0.0440 -0.9990
vn -0.3232 0.3163 0.8919
vn 0.1895 -0.2047 0.9603
vn -0.0206 0.0511 0.9985
vn 0.0403 -0.0028 0.9992
vn 0.0152 0.0223 0.9996
vn 0.4613 -0.1732 0.8701
vn -0.2455 0.4833 0.8403
vn -0.2158 0.1844 0.9589
vn 0.2483 0.1517 0.9567
vn -0.0470 0.1172 0.9920
vn -0.1586 -0.1989 0.9671
vn 0.2544 -0.0005 0.9671
vn -0.0187 0.1510 0.9884
vn -0.1273 0.1220 0.9843
usemtl None
s off
f 5/1/1 4/2/1 10/3/1 11/4/1
f 3/5/2 2/6/2 8/7/2 9/8/2
f 6/9/3 5/1/3 11/4/3 12/10/3
f 4/2/4 3/5/4 9/8/4 10/3/4
f 2/6/5 1/11/5 7/12/5 8/7/5
f 1/11/6 6/9/6 12/10/6 7/12/6
f 12/10/7 11/4/7 13/13/7
f 8/7/8 7/12/8 17/14/8
f 9/8/9 17/14/9 16/15/9
f 11/4/10 10/3/10 15/16/10
f 10/3/11 9/8/11 15/16/11
f 7/12/12 13/13/12 18/17/12
f 14/18/13 15/16/13 22/19/13 23/20/13
f 18/17/14 13/13/14 24/21/14 19/22/14
f 16/15/15 17/14/15 20/23/15 21/24/15
f 15/16/16 16/15/16 21/24/16 22/19/16
f 17/14/17 18/17/17 19/22/17 20/23/17
f 13/13/18 14/18/18 23/20/18 24/21/18
f 13/13/19 7/12/19 12/10/19
f 13/13/7 11/4/7 14/18/7
f 17/14/9 9/8/9 8/7/9
f 15/16/20 14/18/20 11/4/20
f 15/16/21 9/8/21 16/15/21
f 17/14/22 7/12/22 18/17/22
f 3/5/23 4/2/23 27/25/23 26/26/23
f 1/11/24 2/6/24 25/27/24 29/28/24
f 4/2/25 5/1/25 31/29/25 27/25/25
f 51/30/26 52/31/26 30/32/26
f 53/33/27 54/34/27 30/32/27
f 55/35/28 50/36/28 30/32/28
f 50/36/29 51/30/29 30/32/29
f 52/31/30 53/33/30 30/32/30
f 54/34/31 55/35/31 30/32/31
f 25/27/32 26/26/32 34/37/32 33/38/32
f 31/29/33 28/39/33 37/40/33 36/41/33
f 29/28/34 25/27/34 33/38/34 32/42/34
f 32/42/35 33/38/35 39/43/35 38/44/35
f 37/40/36 32/42/36 38/44/36 43/45/36
f 35/46/37 36/41/37 42/47/37 41/48/37
f 33/38/38 34/37/38 40/49/38 39/43/38
f 36/41/39 37/40/39 43/45/39 42/47/39
f 34/37/40 35/46/40 41/48/40 40/49/40
f 42/47/41 43/45/41 49/50/41 48/51/41
f 40/49/42 41/48/42 47/52/42 46/53/42
f 38/44/43 39/43/43 45/54/43 44/55/43
f 43/45/44 38/44/44 44/55/44 49/50/44
f 41/48/45 42/47/45 48/51/45 47/52/45
f 39/43/46 40/49/46 46/53/46 45/54/46
f 49/50/47 44/55/47 50/36/47 55/35/47
f 47/52/48 48/51/48 54/34/48 53/33/48
f 45/54/49 46/53/49 52/31/49 51/30/49
f 48/51/50 49/50/50 55/35/50 54/34/50
f 46/53/51 47/52/51 53/33/51 52/31/51
f 44/55/52 45/54/52 51/30/52 50/36/52
f 71/56/53 69/57/53 58/58/53
f 70/59/54 71/56/54 58/58/54
f 59/60/55 56/61/55 62/62/55 61/63/55
f 56/61/56 57/64/56 60/65/56 62/62/56
f 62/62/57 60/65/57 63/66/57 65/67/57
f 61/63/58 62/62/58 65/67/58 64/68/58
f 64/68/59 65/67/59 68/69/59 67/70/59
f 65/67/60 63/66/60 66/71/60 68/69/60
f 68/69/61 66/71/61 69/57/61 71/56/61
f 67/70/62 68/69/62 71/56/62 70/59/62
f 87/72/63 85/73/63 74/74/63
f 86/75/64 87/72/64 74/74/64
f 75/76/65 72/77/65 78/78/65 77/79/65
f 72/77/66 73/80/66 76/81/66 78/78/66
f 78/78/67 76/81/67 79/82/67 81/83/67
f 77/79/68 78/78/68 81/83/68 80/84/68
f 80/84/69 81/83/69 84/85/69 83/86/69
f 81/83/70 79/82/70 82/87/70 84/85/70
f 84/85/71 82/87/71 85/73/71 87/72/71
f 83/86/72 84/85/72 87/72/72 86/75/72
f 103/88/73 101/89/73 90/90/73
f 102/91/74 103/88/74 90/90/74
f 94/92/75 92/93/75 95/94/75 97/95/75
f 93/96/76 94/92/76 97/95/76 96/97/76
f 96/97/77 97/95/77 100/98/77 99/99/77
f 97/95/78 95/94/78 98/100/78 100/98/78
f 100/98/79 98/100/79 101/89/79 103/88/79
f 99/99/80 100/98/80 103/88/80 102/91/80
f 119/101/81 117/102/81 106/103/81
f 118/104/82 119/101/82 106/103/82
f 110/105/83 108/106/83 111/107/83 113/108/83
f 109/109/84 110/105/84 113/108/84 112/110/84
f 112/110/85 113/108/85 116/111/85 115/112/85
f 113/108/86 111/107/86 114/113/86 116/111/86
f 116/111/87 114/113/87 117/102/87 119/101/87
f 115/112/88 116/111/88 119/101/88 118/104/88
f 135/114/89 133/115/89 122/116/89
f 134/117/90 135/114/90 122/116/90
f 123/118/91 120/119/91 126/120/91 125/121/91
f 120/119/92 121/122/92 124/123/92 126/120/92
f 126/120/93 124/123/93 127/124/93 129/125/93
f 125/121/94 126/120/94 129/125/94 128/126/94
f 128/126/95 129/125/95 132/127/95 131/128/95
f 129/125/96 127/124/96 130/129/96 132/127/96
f 132/127/97 130/129/97 133/115/97 135/114/97
f 131/128/98 132/127/98 135/114/98 134/117/98
f 151/130/99 149/131/99 138/132/99
f 150/133/100 151/130/100 138/132/100
f 139/134/101 136/135/101 142/136/101 141/137/101
f 136/135/102 137/138/102 140/139/102 142/136/102
f 142/136/103 140/139/103 143/140/103 145/141/103
f 141/137/104 142/136/104 145/141/104 144/142/104
f 144/142/105 145/141/105 148/143/105 147/144/105
f 145/141/106 143/140/106 146/145/106 148/143/106
f 148/143/107 146/145/107 149/131/107 151/130/107
f 147/144/108 148/143/108 151/130/108 150/133/108
f 167/146/109 165/147/109 154/148/109
f 166/149/110 167/146/110 154/148/110
f 155/150/111 152/151/111 158/152/111 157/153/111
f 152/151/112 153/154/112 156/155/112 158/152/112
f 158/152/113 156/155/113 159/156/113 161/157/113
f 157/153/114 158/152/114 161/157/114 160/158/114
f 160/158/115 161/157/115 164/159/115 163/160/115
f 161/157/116 159/156/116 162/161/116 164/159/116
f 164/159/117 162/161/117 165/147/117 167/146/117
f 163/160/118 164/159/118 167/146/118 166/149/118
f 91/162/119 3/5/119 88/163/119
f 88/163/120 5/1/120 89/164/120
f 88/163/121 3/5/121 5/1/121
f 2/6/122 136/135/122 139/134/122
f 136/135/123 3/5/123 137/138/123
f 3/5/124 136/135/124 2/6/124
f 137/138/125 3/5/125 140/139/125
f 152/151/126 5/1/126 153/154/126
f 3/5/127 152/151/127 5/1/127
f 155/150/128 157/153/128 3/5/128
f 153/154/129 5/1/129 156/155/129
f 2/6/130 73/80/130 72/77/130
f 1/11/131 72/77/131 75/76/131
f 2/6/132 72/77/132 1/11/132
f 75/76/133 77/79/133 1/11/133
f 73/80/134 2/6/134 76/81/134
f 93/96/135 91/162/135 88/163/135 94/92/135
f 88/163/136 89/164/136 61/63/136 94/92/136
f 155/150/137 3/5/137 152/151/137
f 104/165/138 105/166/138 108/106/138 110/105/138
f 109/109/139 107/167/139 104/165/139 110/105/139
f 5/1/140 6/9/140 104/165/140 107/167/140
f 6/9/141 1/11/141 105/166/141 104/165/141
l 6 28
l 29 28
l 27 35
l 92 89
