ply
format ascii 1.0
comment Created by Blender 2.83.9 - www.blender.org, source file: 'plane.blend'
element vertex 112
property float x
property float y
property float z
property float nx
property float ny
property float nz
property float s
property float t
element face 32
property list uchar uint vertex_indices
end_header
0.330366 0.258819 0.907673 0.652549 -0.121905 0.747876 0.750000 0.250000
0.296198 -0.500000 0.813798 0.652549 -0.121905 0.747876 0.750000 0.500000
0.873907 -0.353553 0.333597 0.652549 -0.121905 0.747876 0.625000 0.500000
0.738868 0.362372 0.568120 0.652549 -0.121905 0.747876 0.625000 0.250000
0.088521 -0.965926 0.243210 0.103024 -0.979219 -0.174688 0.750000 0.750000
-0.171010 -0.866025 -0.469846 0.103024 -0.979219 -0.174688 0.687500 1.000000
0.497023 -0.862372 -0.096343 0.103024 -0.979219 -0.174688 0.625000 0.750000
0.171010 0.866025 0.469846 0.415113 0.601255 0.682769 0.687500 0.000000
0.330366 0.258819 0.907673 0.415113 0.601255 0.682769 0.750000 0.250000
0.738868 0.362372 0.568120 0.415113 0.601255 0.682769 0.625000 0.250000
0.296198 -0.500000 0.813798 0.530309 -0.740951 0.412024 0.750000 0.500000
0.088521 -0.965926 0.243210 0.530309 -0.740951 0.412024 0.750000 0.750000
0.497023 -0.862372 -0.096343 0.530309 -0.740951 0.412024 0.625000 0.750000
0.873907 -0.353553 0.333597 0.530309 -0.740951 0.412024 0.625000 0.500000
0.738868 0.362372 0.568120 0.977803 0.130820 0.163669 0.625000 0.250000
0.873907 -0.353553 0.333597 0.977803 0.130820 0.163669 0.625000 0.500000
0.939693 0.000000 -0.342020 0.977803 0.130820 0.163669 0.500000 0.500000
0.785385 0.612372 0.090387 0.977803 0.130820 0.163669 0.500000 0.250000
0.497023 -0.862372 -0.096343 0.245498 -0.868516 -0.430594 0.625000 0.750000
-0.171010 -0.866025 -0.469846 0.245498 -0.868516 -0.430594 0.562500 1.000000
0.543541 -0.612372 -0.574076 0.245498 -0.868516 -0.430594 0.500000 0.750000
0.171010 0.866025 0.469846 0.557587 0.711958 0.426864 0.562500 0.000000
0.738868 0.362372 0.568120 0.557587 0.711958 0.426864 0.625000 0.250000
0.785385 0.612372 0.090387 0.557587 0.711958 0.426864 0.500000 0.250000
0.873907 -0.353553 0.333597 0.855563 -0.488227 -0.172184 0.625000 0.500000
0.497023 -0.862372 -0.096343 0.855563 -0.488227 -0.172184 0.625000 0.750000
0.543541 -0.612372 -0.574076 0.855563 -0.488227 -0.172184 0.500000 0.750000
0.939693 0.000000 -0.342020 0.855563 -0.488227 -0.172184 0.500000 0.500000
0.785385 0.612372 0.090387 0.766077 0.488227 -0.418045 0.500000 0.250000
0.939693 0.000000 -0.342020 0.766077 0.488227 -0.418045 0.500000 0.500000
0.455019 0.353554 -0.817287 0.766077 0.488227 -0.418045 0.375000 0.500000
0.442670 0.862372 -0.245677 0.766077 0.488227 -0.418045 0.375000 0.250000
0.543541 -0.612372 -0.574076 0.152754 -0.711958 -0.685407 0.500000 0.750000
-0.171010 -0.866025 -0.469846 0.152754 -0.711958 -0.685407 0.437500 1.000000
0.200825 -0.362372 -0.910141 0.152754 -0.711958 -0.685407 0.375000 0.750000
0.171010 0.866025 0.469846 0.464843 0.868516 0.172051 0.437500 0.000000
0.785385 0.612372 0.090387 0.464843 0.868516 0.172051 0.500000 0.250000
0.442670 0.862372 -0.245677 0.464843 0.868516 0.172051 0.375000 0.250000
0.939693 0.000000 -0.342020 0.643836 -0.130820 -0.753897 0.500000 0.500000
0.543541 -0.612372 -0.574076 0.643836 -0.130820 -0.753897 0.500000 0.750000
0.200825 -0.362372 -0.910141 0.643836 -0.130820 -0.753897 0.375000 0.750000
0.455019 0.353554 -0.817287 0.643836 -0.130820 -0.753897 0.375000 0.500000
0.442670 0.862372 -0.245677 0.141396 0.740951 -0.656504 0.375000 0.250000
0.455019 0.353554 -0.817287 0.141396 0.740951 -0.656504 0.375000 0.500000
-0.296198 0.500000 -0.813798 0.141396 0.740951 -0.656504 0.250000 0.500000
-0.088521 0.965926 -0.243210 0.141396 0.740951 -0.656504 0.250000 0.250000
0.200825 -0.362372 -0.910141 -0.120880 -0.601255 -0.789861 0.375000 0.750000
-0.171010 -0.866025 -0.469846 -0.120880 -0.601255 -0.789861 0.312500 1.000000
-0.330366 -0.258819 -0.907673 -0.120880 -0.601255 -0.789861 0.250000 0.750000
0.171010 0.866025 0.469846 0.191208 0.979219 0.067596 0.312500 0.000000
0.442670 0.862372 -0.245677 0.191208 0.979219 0.067596 0.375000 0.250000
-0.088521 0.965926 -0.243210 0.191208 0.979219 0.067596 0.250000 0.250000
0.455019 0.353554 -0.817287 0.019156 0.121905 -0.992357 0.375000 0.500000
0.200825 -0.362372 -0.910141 0.019156 0.121905 -0.992357 0.375000 0.750000
-0.330366 -0.258819 -0.907673 0.019156 0.121905 -0.992357 0.250000 0.750000
-0.296198 0.500000 -0.813798 0.019156 0.121905 -0.992357 0.250000 0.500000
-0.088521 0.965926 -0.243210 -0.530309 0.740951 -0.412024 0.250000 0.250000
-0.296198 0.500000 -0.813798 -0.530309 0.740951 -0.412024 0.250000 0.500000
-0.873907 0.353553 -0.333597 -0.530309 0.740951 -0.412024 0.125000 0.500000
-0.497023 0.862372 0.096343 -0.530309 0.740951 -0.412024 0.125000 0.250000
-0.330366 -0.258819 -0.907673 -0.415113 -0.601255 -0.682769 0.250000 0.750000
-0.171010 -0.866025 -0.469846 -0.415113 -0.601255 -0.682769 0.187500 1.000000
-0.738868 -0.362372 -0.568120 -0.415113 -0.601255 -0.682769 0.125000 0.750000
0.171010 0.866025 0.469846 -0.103024 0.979219 0.174688 0.187500 0.000000
-0.088521 0.965926 -0.243210 -0.103024 0.979219 0.174688 0.250000 0.250000
-0.497023 0.862372 0.096343 -0.103024 0.979219 0.174688 0.125000 0.250000
-0.296198 0.500000 -0.813798 -0.652549 0.121905 -0.747876 0.250000 0.500000
-0.330366 -0.258819 -0.907673 -0.652549 0.121905 -0.747876 0.250000 0.750000
-0.738868 -0.362372 -0.568120 -0.652549 0.121905 -0.747876 0.125000 0.750000
-0.873907 0.353553 -0.333597 -0.652549 0.121905 -0.747876 0.125000 0.500000
-0.873907 0.353553 -0.333597 -0.977803 -0.130820 -0.163669 0.125000 0.500000
-0.738868 -0.362372 -0.568120 -0.977803 -0.130820 -0.163669 0.125000 0.750000
-0.785385 -0.612372 -0.090387 -0.977803 -0.130820 -0.163669 0.000000 0.750000
-0.939692 0.000000 0.342020 -0.977803 -0.130820 -0.163669 0.000000 0.500000
-0.497023 0.862372 0.096343 -0.855563 0.488227 0.172184 0.125000 0.250000
-0.873907 0.353553 -0.333597 -0.855563 0.488227 0.172184 0.125000 0.500000
-0.939692 0.000000 0.342020 -0.855563 0.488227 0.172184 0.000000 0.500000
-0.543541 0.612372 0.574076 -0.855563 0.488227 0.172184 0.000000 0.250000
-0.738868 -0.362372 -0.568120 -0.557587 -0.711958 -0.426864 0.125000 0.750000
-0.171010 -0.866025 -0.469846 -0.557587 -0.711958 -0.426864 0.062500 1.000000
-0.785385 -0.612372 -0.090387 -0.557587 -0.711958 -0.426864 0.000000 0.750000
0.171010 0.866025 0.469846 -0.245498 0.868516 0.430593 0.062500 0.000000
-0.497023 0.862372 0.096343 -0.245498 0.868516 0.430593 0.125000 0.250000
-0.543541 0.612372 0.574076 -0.245498 0.868516 0.430593 0.000000 0.250000
0.171010 0.866025 0.469846 -0.152754 0.711958 0.685407 0.937500 0.000000
-0.543541 0.612372 0.574076 -0.152754 0.711958 0.685407 1.000000 0.250000
-0.200825 0.362372 0.910140 -0.152754 0.711958 0.685407 0.875000 0.250000
-0.939692 0.000000 0.342020 -0.766077 -0.488227 0.418045 1.000000 0.500000
-0.785385 -0.612372 -0.090387 -0.766077 -0.488227 0.418045 1.000000 0.750000
-0.442670 -0.862372 0.245677 -0.766077 -0.488227 0.418045 0.875000 0.750000
-0.455019 -0.353553 0.817286 -0.766077 -0.488227 0.418045 0.875000 0.500000
-0.543541 0.612372 0.574076 -0.643836 0.130820 0.753897 1.000000 0.250000
-0.939692 0.000000 0.342020 -0.643836 0.130820 0.753897 1.000000 0.500000
-0.455019 -0.353553 0.817286 -0.643836 0.130820 0.753897 0.875000 0.500000
-0.200825 0.362372 0.910140 -0.643836 0.130820 0.753897 0.875000 0.250000
-0.785385 -0.612372 -0.090387 -0.464843 -0.868516 -0.172051 1.000000 0.750000
-0.171010 -0.866025 -0.469846 -0.464843 -0.868516 -0.172051 0.937500 1.000000
-0.442670 -0.862372 0.245677 -0.464843 -0.868516 -0.172051 0.875000 0.750000
0.171010 0.866025 0.469846 0.120880 0.601255 0.789861 0.812500 0.000000
-0.200825 0.362372 0.910140 0.120880 0.601255 0.789861 0.875000 0.250000
0.330366 0.258819 0.907673 0.120880 0.601255 0.789861 0.750000 0.250000
-0.455019 -0.353553 0.817286 -0.141397 -0.740951 0.656504 0.875000 0.500000
-0.442670 -0.862372 0.245677 -0.141397 -0.740951 0.656504 0.875000 0.750000
0.088521 -0.965926 0.243210 -0.141397 -0.740951 0.656504 0.750000 0.750000
0.296198 -0.500000 0.813798 -0.141397 -0.740951 0.656504 0.750000 0.500000
-0.200825 0.362372 0.910140 -0.019156 -0.121905 0.992357 0.875000 0.250000
-0.455019 -0.353553 0.817286 -0.019156 -0.121905 0.992357 0.875000 0.500000
0.296198 -0.500000 0.813798 -0.019156 -0.121905 0.992357 0.750000 0.500000
0.330366 0.258819 0.907673 -0.019156 -0.121905 0.992357 0.750000 0.250000
-0.442670 -0.862372 0.245677 -0.191209 -0.979219 -0.067596 0.875000 0.750000
-0.171010 -0.866025 -0.469846 -0.191209 -0.979219 -0.067596 0.812500 1.000000
0.088521 -0.965926 0.243210 -0.191209 -0.979219 -0.067596 0.750000 0.750000
4 0 1 2 3
3 4 5 6
3 7 8 9
4 10 11 12 13
4 14 15 16 17
3 18 19 20
3 21 22 23
4 24 25 26 27
4 28 29 30 31
3 32 33 34
3 35 36 37
4 38 39 40 41
4 42 43 44 45
3 46 47 48
3 49 50 51
4 52 53 54 55
4 56 57 58 59
3 60 61 62
3 63 64 65
4 66 67 68 69
4 70 71 72 73
4 74 75 76 77
3 78 79 80
3 81 82 83
3 84 85 86
4 87 88 89 90
4 91 92 93 94
3 95 96 97
3 98 99 100
4 101 102 103 104
4 105 106 107 108
3 109 110 111
