# Blender v2.83.9 OBJ File: 'plane.blend'
# www.blender.org
mtllib plane.mtl
o Plane1_Plane.002
v 0.000000 0.000000 -0.000000
v 0.800000 0.000000 -0.000000
v 0.000000 0.000000 -0.800000
v 0.800000 0.000000 -0.800000
vt 0.000000 0.000000
vt 1.000000 0.000000
vt 1.000000 1.000000
vt 0.000000 1.000000
vn 0.0000 1.0000 0.0000
usemtl None
s off
f 1/1/1 2/2/1 4/3/1 3/4/1
o Plane3_Plane.001
v 0.803147 0.006160 -0.000000
v 1.368832 0.571845 -0.000000
v 0.803147 0.006160 -0.800000
v 1.368833 0.571845 -0.800000
vt 0.000000 0.000000
vt 1.000000 0.000000
vt 1.000000 1.000000
vt 0.000000 1.000000
vn -0.7071 0.7071 -0.0000
usemtl None
s off
f 5/5/2 6/6/2 8/7/2 7/8/2
o Plane2_Plane.003
v 0.000000 0.004749 -0.802121
v 0.800000 0.004749 -0.802121
v 0.000000 0.570434 -1.367806
v 0.800000 0.570434 -1.367806
vt 0.000000 0.000000
vt 1.000000 0.000000
vt 1.000000 1.000000
vt 0.000000 1.000000
vn 0.0000 0.7071 0.7071
usemtl None
s off
f 9/9/3 10/10/3 12/11/3 11/12/3
