# Blender v2.83.9 OBJ File: 'plane.blend'
# www.blender.org
mtllib plane.mtl
o Plane1_Plane.002
v 0.000000 0.000000 -0.000000
v 0.800000 0.000000 -0.000000
v 0.000000 0.000000 -0.800000
v 0.800000 0.000000 -0.800000
vt 0.000000 0.000000
vt 1.000000 0.000000
vt 1.000000 1.000000
vt 0.000000 1.000000
vn 0.0000 1.0000 0.0000
usemtl None
s off
f 1/1/1 2/2/1 4/3/1 3/4/1
o Plane2_Plane.005
v 0.000000 0.002783 -0.802167
v 0.800000 0.002783 -0.802167
v 0.000000 0.503570 -1.426035
v 0.800000 0.503570 -1.426035
vt 0.000000 0.000000
vt 1.000000 0.000000
vt 1.000000 1.000000
vt 0.000000 1.000000
vn 0.0000 0.7798 0.6260
usemtl None
s off
f 5/5/2 6/6/2 8/7/2 7/8/2
