# Blender v2.83.9 OBJ File: 'plane.blend'
# www.blender.org
mtllib plane.mtl
o Sphere
v 0.626371 0.361636 0.417581
v 0.626371 0.361636 -0.417581
v 0.626371 -0.361636 0.417581
v 0.626371 -0.361636 -0.417581
v 0.000000 -0.000000 -0.835162
v -0.000000 -0.000000 0.835162
v -0.626371 -0.361636 0.417581
v -0.626371 -0.361636 -0.417581
v -0.626371 0.361636 0.417581
v -0.626371 0.361636 -0.417581
vt 0.416667 0.000000
vt 0.500000 0.333333
vt 0.333333 0.333333
vt 0.500000 0.666667
vt 0.333333 0.666667
vt 0.416667 1.000000
vt 0.916667 0.000000
vt 1.000000 0.333333
vt 0.833333 0.333333
vt 1.000000 0.666667
vt 0.833333 0.666667
vt 0.916667 1.000000
vn 0.5547 0.0000 -0.8321
vn 1.0000 0.0000 -0.0000
vn 0.5547 -0.0000 0.8321
vn -0.5547 0.0000 -0.8321
vn -1.0000 0.0000 0.0000
vn -0.5547 0.0000 0.8321
usemtl None
s off
f 5/1/1 2/2/1 4/3/1
f 2/2/2 1/4/2 3/5/2 4/3/2
f 1/4/3 6/6/3 3/5/3
f 5/7/4 8/8/4 10/9/4
f 8/8/5 7/10/5 9/11/5 10/9/5
f 7/10/6 6/12/6 9/11/6
