# Blender v2.83.9 OBJ File: 'plane.blend'
# www.blender.org
mtllib plane.mtl
o Obj1_Plane
v -0.645389 -0.623024 0.295139
v 0.356243 0.044731 0.873432
v -0.356243 -0.044731 -0.873432
v 0.645389 0.623024 -0.295139
vt 0.000000 0.000000
vt 1.000000 0.000000
vt 1.000000 1.000000
vt 0.000000 1.000000
vn -0.6250 0.7500 0.2165
usemtl None
s off
f 1/1/1 2/2/1 4/3/1 3/4/1
o Obj2_Plane.001
v -0.419792 0.083802 0.107006
v 0.006174 0.178908 0.316672
v -0.246498 0.241659 -0.316672
v 0.179468 0.336765 -0.107006
vt 0.000000 0.000000
vt 1.000000 0.000000
vt 1.000000 1.000000
vt 0.000000 1.000000
vn -0.3130 0.9247 0.2165
usemtl None
s off
f 5/5/2 6/6/2 8/7/2 7/8/2
